<svg width="150" height="50" viewBox="0 0 403 144" fill="none" xmlns="http://www.w3.org/2000/svg">
<path d="M205.091 67H199.455C199.121 65.3788 198.538 63.9545 197.705 62.7273C196.886 61.5 195.886 60.4697 194.705 59.6364C193.538 58.7879 192.242 58.1515 190.818 57.7273C189.394 57.303 187.909 57.0909 186.364 57.0909C183.545 57.0909 180.992 57.803 178.705 59.2273C176.432 60.6515 174.621 62.75 173.273 65.5227C171.939 68.2955 171.273 71.697 171.273 75.7273C171.273 79.7576 171.939 83.1591 173.273 85.9318C174.621 88.7045 176.432 90.803 178.705 92.2273C180.992 93.6515 183.545 94.3636 186.364 94.3636C187.909 94.3636 189.394 94.1515 190.818 93.7273C192.242 93.303 193.538 92.6742 194.705 91.8409C195.886 90.9924 196.886 89.9545 197.705 88.7273C198.538 87.4848 199.121 86.0606 199.455 84.4545H205.091C204.667 86.8333 203.894 88.9621 202.773 90.8409C201.652 92.7197 200.258 94.3182 198.591 95.6364C196.924 96.9394 195.053 97.9318 192.977 98.6136C190.917 99.2955 188.712 99.6364 186.364 99.6364C182.394 99.6364 178.864 98.6667 175.773 96.7273C172.682 94.7879 170.25 92.0303 168.477 88.4545C166.705 84.8788 165.818 80.6364 165.818 75.7273C165.818 70.8182 166.705 66.5758 168.477 63C170.25 59.4242 172.682 56.6667 175.773 54.7273C178.864 52.7879 182.394 51.8182 186.364 51.8182C188.712 51.8182 190.917 52.1591 192.977 52.8409C195.053 53.5227 196.924 54.5227 198.591 55.8409C200.258 57.1439 201.652 58.7348 202.773 60.6136C203.894 62.4773 204.667 64.6061 205.091 67ZM218.039 99V52.4545H223.675V73.1818H248.493V52.4545H254.13V99H248.493V78.1818H223.675V99H218.039ZM269.254 99V52.4545H297.345V57.4545H274.89V73.1818H295.89V78.1818H274.89V94H297.708V99H269.254ZM348.798 67H343.162C342.829 65.3788 342.245 63.9545 341.412 62.7273C340.594 61.5 339.594 60.4697 338.412 59.6364C337.245 58.7879 335.95 58.1515 334.526 57.7273C333.101 57.303 331.617 57.0909 330.071 57.0909C327.253 57.0909 324.7 57.803 322.412 59.2273C320.139 60.6515 318.329 62.75 316.98 65.5227C315.647 68.2955 314.98 71.697 314.98 75.7273C314.98 79.7576 315.647 83.1591 316.98 85.9318C318.329 88.7045 320.139 90.803 322.412 92.2273C324.7 93.6515 327.253 94.3636 330.071 94.3636C331.617 94.3636 333.101 94.1515 334.526 93.7273C335.95 93.303 337.245 92.6742 338.412 91.8409C339.594 90.9924 340.594 89.9545 341.412 88.7273C342.245 87.4848 342.829 86.0606 343.162 84.4545H348.798C348.374 86.8333 347.601 88.9621 346.48 90.8409C345.359 92.7197 343.965 94.3182 342.298 95.6364C340.632 96.9394 338.761 97.9318 336.685 98.6136C334.624 99.2955 332.42 99.6364 330.071 99.6364C326.101 99.6364 322.571 98.6667 319.48 96.7273C316.389 94.7879 313.958 92.0303 312.185 88.4545C310.412 84.8788 309.526 80.6364 309.526 75.7273C309.526 70.8182 310.412 66.5758 312.185 63C313.958 59.4242 316.389 56.6667 319.48 54.7273C322.571 52.7879 326.101 51.8182 330.071 51.8182C332.42 51.8182 334.624 52.1591 336.685 52.8409C338.761 53.5227 340.632 54.5227 342.298 55.8409C343.965 57.1439 345.359 58.7348 346.48 60.6136C347.601 62.4773 348.374 64.6061 348.798 67ZM361.746 99V52.4545H367.383V75.5455H367.928L388.837 52.4545H396.201L376.655 73.4545L396.201 99H389.383L373.201 77.3636L367.383 83.9091V99H361.746Z" fill="black"/>
<path d="M205.091 67V68H206.284L206.076 66.8255L205.091 67ZM199.455 67L198.475 67.2014L198.639 68H199.455V67ZM197.705 62.7273L196.872 63.282L196.877 63.289L197.705 62.7273ZM194.705 59.6364L194.116 60.4451L194.122 60.4494L194.128 60.4536L194.705 59.6364ZM190.818 57.7273L190.533 58.6857L190.533 58.6857L190.818 57.7273ZM178.705 59.2273L178.176 58.3783L178.174 58.3799L178.705 59.2273ZM173.273 65.5227L172.373 65.0854L172.372 65.0894L173.273 65.5227ZM173.273 85.9318L172.372 86.3652L172.373 86.3692L173.273 85.9318ZM178.705 92.2273L178.174 93.0746L178.176 93.0762L178.705 92.2273ZM190.818 93.7273L190.533 92.7689L190.533 92.7689L190.818 93.7273ZM194.705 91.8409L195.286 92.6546L195.288 92.6532L194.705 91.8409ZM197.705 88.7273L196.874 88.1702L196.872 88.1726L197.705 88.7273ZM199.455 84.4545V83.4545H198.641L198.475 84.2513L199.455 84.4545ZM205.091 84.4545L206.075 84.6301L206.285 83.4545H205.091V84.4545ZM202.773 90.8409L201.914 90.3285L201.914 90.3285L202.773 90.8409ZM198.591 95.6364L199.207 96.4242L199.211 96.4207L198.591 95.6364ZM192.977 98.6136L192.665 97.6636L192.663 97.6643L192.977 98.6136ZM175.773 96.7273L175.241 97.5743L175.241 97.5743L175.773 96.7273ZM168.477 88.4545L169.373 88.0104L169.373 88.0104L168.477 88.4545ZM168.477 63L167.581 62.5558L168.477 63ZM192.977 52.8409L192.663 53.7903L192.665 53.791L192.977 52.8409ZM198.591 55.8409L197.971 56.6253L197.975 56.6287L198.591 55.8409ZM202.773 60.6136L201.914 61.1261L201.916 61.1292L202.773 60.6136ZM205.091 66H199.455V68H205.091V66ZM200.434 66.7986C200.077 65.0633 199.447 63.5137 198.532 62.1655L196.877 63.289C197.629 64.3954 198.165 65.6942 198.475 67.2014L200.434 66.7986ZM198.537 62.1726C197.651 60.8449 196.565 59.7249 195.281 58.8191L194.128 60.4536C195.207 61.2145 196.121 62.1551 196.872 63.282L198.537 62.1726ZM195.293 58.8276C194.032 57.9105 192.633 57.2245 191.104 56.7689L190.533 58.6857C191.852 59.0785 193.044 59.6653 194.116 60.4451L195.293 58.8276ZM191.104 56.7689C189.583 56.316 188.002 56.0909 186.364 56.0909V58.0909C187.816 58.0909 189.205 58.2901 190.533 58.6857L191.104 56.7689ZM186.364 56.0909C183.368 56.0909 180.63 56.8507 178.176 58.3783L179.233 60.0762C181.355 58.7553 183.723 58.0909 186.364 58.0909V56.0909ZM178.174 58.3799C175.719 59.9178 173.791 62.1699 172.373 65.0854L174.172 65.9601C175.451 63.3301 177.144 61.3852 179.236 60.0746L178.174 58.3799ZM172.372 65.0894C170.956 68.0325 170.273 71.5915 170.273 75.7273H172.273C172.273 71.8024 172.923 68.5585 174.174 65.9561L172.372 65.0894ZM170.273 75.7273C170.273 79.863 170.956 83.4221 172.372 86.3652L174.174 85.4984C172.923 82.8961 172.273 79.6521 172.273 75.7273H170.273ZM172.373 86.3692C173.791 89.2846 175.719 91.5367 178.174 93.0746L179.236 91.3799C177.144 90.0693 175.451 88.1245 174.172 85.4945L172.373 86.3692ZM178.176 93.0762C180.63 94.6038 183.368 95.3636 186.364 95.3636V93.3636C183.723 93.3636 181.355 92.6992 179.233 91.3783L178.176 93.0762ZM186.364 95.3636C188.002 95.3636 189.583 95.1386 191.104 94.6857L190.533 92.7689C189.205 93.1644 187.816 93.3636 186.364 93.3636V95.3636ZM191.104 94.6857C192.63 94.231 194.026 93.5545 195.286 92.6546L194.123 91.0272C193.05 91.794 191.855 92.375 190.533 92.7689L191.104 94.6857ZM195.288 92.6532C196.569 91.7336 197.653 90.608 198.537 89.282L196.872 88.1726C196.12 89.3011 195.204 90.2513 194.121 91.0286L195.288 92.6532ZM198.535 89.2843C199.447 87.9247 200.077 86.378 200.434 84.6578L198.475 84.2513C198.166 85.7432 197.629 87.045 196.874 88.1702L198.535 89.2843ZM199.455 85.4545H205.091V83.4545H199.455V85.4545ZM204.106 84.279C203.701 86.5512 202.967 88.5637 201.914 90.3285L203.631 91.3534C204.821 89.3605 205.632 87.1155 206.075 84.6301L204.106 84.279ZM201.914 90.3285C200.853 92.106 199.539 93.6115 197.971 94.852L199.211 96.4207C200.976 95.0249 202.45 93.3334 203.631 91.3534L201.914 90.3285ZM197.975 94.8486C196.402 96.078 194.635 97.0167 192.665 97.6636L193.289 99.5637C195.471 98.847 197.446 97.8008 199.207 96.4242L197.975 94.8486ZM192.663 97.6643C190.712 98.3099 188.614 98.6364 186.364 98.6364V100.636C188.81 100.636 191.121 100.281 193.291 99.563L192.663 97.6643ZM186.364 98.6364C182.565 98.6364 179.222 97.7109 176.304 95.8802L175.241 97.5743C178.505 99.6224 182.223 100.636 186.364 100.636V98.6364ZM176.304 95.8802C173.384 94.048 171.072 91.4368 169.373 88.0104L167.581 88.8987C169.428 92.6238 171.979 95.5278 175.241 97.5743L176.304 95.8802ZM169.373 88.0104C167.683 84.6008 166.818 80.5171 166.818 75.7273H164.818C164.818 80.7557 165.726 85.1568 167.581 88.8987L169.373 88.0104ZM166.818 75.7273C166.818 70.9375 167.683 66.8538 169.373 63.4442L167.581 62.5558C165.726 66.2978 164.818 70.6989 164.818 75.7273H166.818ZM169.373 63.4442C171.072 60.0177 173.384 57.4065 176.304 55.5743L175.241 53.8802C171.979 55.9268 169.428 58.8308 167.581 62.5558L169.373 63.4442ZM176.304 55.5743C179.222 53.7436 182.565 52.8182 186.364 52.8182V50.8182C182.223 50.8182 178.505 51.8321 175.241 53.8802L176.304 55.5743ZM186.364 52.8182C188.614 52.8182 190.712 53.1446 192.663 53.7903L193.291 51.8915C191.121 51.1735 188.81 50.8182 186.364 50.8182V52.8182ZM192.665 53.791C194.632 54.4371 196.399 55.3821 197.971 56.6252L199.211 55.0566C197.45 53.6634 195.474 52.6083 193.289 51.8908L192.665 53.791ZM197.975 56.6287C199.541 57.8531 200.854 59.3496 201.914 61.1261L203.631 60.1012C202.449 58.1201 200.974 56.4347 199.207 55.0531L197.975 56.6287ZM201.916 61.1292C202.967 62.8763 203.701 64.887 204.106 67.1745L206.076 66.8255C205.632 64.3252 204.821 62.0783 203.63 60.0981L201.916 61.1292ZM218.039 99H217.039V100H218.039V99ZM218.039 52.4545V51.4545H217.039V52.4545H218.039ZM223.675 52.4545H224.675V51.4545H223.675V52.4545ZM223.675 73.1818H222.675V74.1818H223.675V73.1818ZM248.493 73.1818V74.1818H249.493V73.1818H248.493ZM248.493 52.4545V51.4545H247.493V52.4545H248.493ZM254.13 52.4545H255.13V51.4545H254.13V52.4545ZM254.13 99V100H255.13V99H254.13ZM248.493 99H247.493V100H248.493V99ZM248.493 78.1818H249.493V77.1818H248.493V78.1818ZM223.675 78.1818V77.1818H222.675V78.1818H223.675ZM223.675 99V100H224.675V99H223.675ZM219.039 99V52.4545H217.039V99H219.039ZM218.039 53.4545H223.675V51.4545H218.039V53.4545ZM222.675 52.4545V73.1818H224.675V52.4545H222.675ZM223.675 74.1818H248.493V72.1818H223.675V74.1818ZM249.493 73.1818V52.4545H247.493V73.1818H249.493ZM248.493 53.4545H254.13V51.4545H248.493V53.4545ZM253.13 52.4545V99H255.13V52.4545H253.13ZM254.13 98H248.493V100H254.13V98ZM249.493 99V78.1818H247.493V99H249.493ZM248.493 77.1818H223.675V79.1818H248.493V77.1818ZM222.675 78.1818V99H224.675V78.1818H222.675ZM223.675 98H218.039V100H223.675V98ZM269.254 99H268.254V100H269.254V99ZM269.254 52.4545V51.4545H268.254V52.4545H269.254ZM297.345 52.4545H298.345V51.4545H297.345V52.4545ZM297.345 57.4545V58.4545H298.345V57.4545H297.345ZM274.89 57.4545V56.4545H273.89V57.4545H274.89ZM274.89 73.1818H273.89V74.1818H274.89V73.1818ZM295.89 73.1818H296.89V72.1818H295.89V73.1818ZM295.89 78.1818V79.1818H296.89V78.1818H295.89ZM274.89 78.1818V77.1818H273.89V78.1818H274.89ZM274.89 94H273.89V95H274.89V94ZM297.708 94H298.708V93H297.708V94ZM297.708 99V100H298.708V99H297.708ZM270.254 99V52.4545H268.254V99H270.254ZM269.254 53.4545H297.345V51.4545H269.254V53.4545ZM296.345 52.4545V57.4545H298.345V52.4545H296.345ZM297.345 56.4545H274.89V58.4545H297.345V56.4545ZM273.89 57.4545V73.1818H275.89V57.4545H273.89ZM274.89 74.1818H295.89V72.1818H274.89V74.1818ZM294.89 73.1818V78.1818H296.89V73.1818H294.89ZM295.89 77.1818H274.89V79.1818H295.89V77.1818ZM273.89 78.1818V94H275.89V78.1818H273.89ZM274.89 95H297.708V93H274.89V95ZM296.708 94V99H298.708V94H296.708ZM297.708 98H269.254V100H297.708V98ZM348.798 67V68H349.991L349.783 66.8255L348.798 67ZM343.162 67L342.183 67.2014L342.347 68H343.162V67ZM341.412 62.7273L340.58 63.282L340.585 63.289L341.412 62.7273ZM338.412 59.6364L337.824 60.4451L337.83 60.4494L337.836 60.4536L338.412 59.6364ZM334.526 57.7273L334.24 58.6857L334.24 58.6857L334.526 57.7273ZM322.412 59.2273L321.884 58.3783L321.881 58.3799L322.412 59.2273ZM316.98 65.5227L316.081 65.0854L316.079 65.0894L316.98 65.5227ZM316.98 85.9318L316.079 86.3652L316.081 86.3692L316.98 85.9318ZM322.412 92.2273L321.881 93.0746L321.884 93.0762L322.412 92.2273ZM334.526 93.7273L334.24 92.7689L334.24 92.7689L334.526 93.7273ZM338.412 91.8409L338.993 92.6546L338.995 92.6532L338.412 91.8409ZM341.412 88.7273L340.582 88.1702L340.58 88.1726L341.412 88.7273ZM343.162 84.4545V83.4545H342.348L342.183 84.2513L343.162 84.4545ZM348.798 84.4545L349.783 84.6301L349.993 83.4545H348.798V84.4545ZM346.48 90.8409L345.622 90.3285L345.622 90.3285L346.48 90.8409ZM342.298 95.6364L342.914 96.4242L342.919 96.4207L342.298 95.6364ZM336.685 98.6136L336.373 97.6636L336.371 97.6643L336.685 98.6136ZM319.48 96.7273L318.949 97.5743L318.949 97.5743L319.48 96.7273ZM312.185 88.4545L313.081 88.0104L313.081 88.0104L312.185 88.4545ZM312.185 63L311.289 62.5558L312.185 63ZM336.685 52.8409L336.371 53.7903L336.373 53.791L336.685 52.8409ZM342.298 55.8409L341.678 56.6253L341.682 56.6287L342.298 55.8409ZM346.48 60.6136L345.622 61.1261L345.623 61.1292L346.48 60.6136ZM348.798 66H343.162V68H348.798V66ZM344.142 66.7986C343.785 65.0633 343.155 63.5137 342.239 62.1655L340.585 63.289C341.336 64.3954 341.873 65.6942 342.183 67.2014L344.142 66.7986ZM342.244 62.1726C341.359 60.8449 340.273 59.7249 338.988 58.8191L337.836 60.4536C338.915 61.2145 339.829 62.1551 340.58 63.282L342.244 62.1726ZM339 58.8276C337.739 57.9105 336.341 57.2245 334.811 56.7689L334.24 58.6857C335.559 59.0785 336.752 59.6653 337.824 60.4451L339 58.8276ZM334.811 56.7689C333.291 56.316 331.709 56.0909 330.071 56.0909V58.0909C331.524 58.0909 332.912 58.2901 334.24 58.6857L334.811 56.7689ZM330.071 56.0909C327.075 56.0909 324.337 56.8507 321.884 58.3783L322.941 60.0762C325.062 58.7553 327.431 58.0909 330.071 58.0909V56.0909ZM321.881 58.3799C319.427 59.9178 317.499 62.1699 316.081 65.0854L317.88 65.9601C319.159 63.3301 320.852 61.3852 322.943 60.0746L321.881 58.3799ZM316.079 65.0894C314.664 68.0325 313.98 71.5915 313.98 75.7273H315.98C315.98 71.8024 316.63 68.5585 317.881 65.9561L316.079 65.0894ZM313.98 75.7273C313.98 79.863 314.664 83.4221 316.079 86.3652L317.881 85.4984C316.63 82.8961 315.98 79.6521 315.98 75.7273H313.98ZM316.081 86.3692C317.499 89.2846 319.427 91.5367 321.881 93.0746L322.943 91.3799C320.852 90.0693 319.159 88.1245 317.88 85.4945L316.081 86.3692ZM321.884 93.0762C324.337 94.6038 327.075 95.3636 330.071 95.3636V93.3636C327.431 93.3636 325.062 92.6992 322.941 91.3783L321.884 93.0762ZM330.071 95.3636C331.709 95.3636 333.291 95.1386 334.811 94.6857L334.24 92.7689C332.912 93.1644 331.524 93.3636 330.071 93.3636V95.3636ZM334.811 94.6857C336.337 94.231 337.733 93.5545 338.993 92.6546L337.831 91.0272C336.757 91.794 335.562 92.375 334.24 92.7689L334.811 94.6857ZM338.995 92.6532C340.276 91.7336 341.36 90.608 342.244 89.282L340.58 88.1726C339.828 89.3011 338.912 90.2513 337.829 91.0286L338.995 92.6532ZM342.243 89.2843C343.154 87.9247 343.784 86.378 344.141 84.6578L342.183 84.2513C341.873 85.7432 341.336 87.045 340.582 88.1702L342.243 89.2843ZM343.162 85.4545H348.798V83.4545H343.162V85.4545ZM347.814 84.279C347.409 86.5512 346.675 88.5637 345.622 90.3285L347.339 91.3534C348.528 89.3605 349.34 87.1155 349.783 84.6301L347.814 84.279ZM345.622 90.3285C344.561 92.106 343.247 93.6115 341.678 94.852L342.919 96.4207C344.684 95.0249 346.157 93.3334 347.339 91.3534L345.622 90.3285ZM341.682 94.8486C340.11 96.078 338.342 97.0167 336.373 97.6636L336.997 99.5637C339.179 98.847 341.154 97.8008 342.914 96.4242L341.682 94.8486ZM336.371 97.6643C334.419 98.3099 332.322 98.6364 330.071 98.6364V100.636C332.518 100.636 334.829 100.281 336.999 99.563L336.371 97.6643ZM330.071 98.6364C326.272 98.6364 322.929 97.7109 320.012 95.8802L318.949 97.5743C322.213 99.6224 325.931 100.636 330.071 100.636V98.6364ZM320.012 95.8802C317.092 94.048 314.779 91.4368 313.081 88.0104L311.289 88.8987C313.136 92.6238 315.687 95.5278 318.949 97.5743L320.012 95.8802ZM313.081 88.0104C311.39 84.6008 310.526 80.5171 310.526 75.7273H308.526C308.526 80.7557 309.434 85.1568 311.289 88.8987L313.081 88.0104ZM310.526 75.7273C310.526 70.9375 311.39 66.8538 313.081 63.4442L311.289 62.5558C309.434 66.2978 308.526 70.6989 308.526 75.7273H310.526ZM313.081 63.4442C314.779 60.0177 317.092 57.4065 320.012 55.5743L318.949 53.8802C315.687 55.9268 313.136 58.8308 311.289 62.5558L313.081 63.4442ZM320.012 55.5743C322.929 53.7436 326.272 52.8182 330.071 52.8182V50.8182C325.931 50.8182 322.213 51.8321 318.949 53.8802L320.012 55.5743ZM330.071 52.8182C332.322 52.8182 334.419 53.1446 336.371 53.7903L336.999 51.8915C334.829 51.1735 332.518 50.8182 330.071 50.8182V52.8182ZM336.373 53.791C338.34 54.4371 340.106 55.3821 341.678 56.6252L342.919 55.0566C341.157 53.6634 339.181 52.6083 336.997 51.8908L336.373 53.791ZM341.682 56.6287C343.249 57.8531 344.561 59.3496 345.622 61.1261L347.339 60.1012C346.157 58.1201 344.682 56.4347 342.914 55.0531L341.682 56.6287ZM345.623 61.1292C346.674 62.8763 347.408 64.887 347.814 67.1745L349.783 66.8255C349.34 64.3252 348.528 62.0783 347.337 60.0981L345.623 61.1292ZM361.746 99H360.746V100H361.746V99ZM361.746 52.4545V51.4545H360.746V52.4545H361.746ZM367.383 52.4545H368.383V51.4545H367.383V52.4545ZM367.383 75.5455H366.383V76.5455H367.383V75.5455ZM367.928 75.5455V76.5455H368.372L368.669 76.2167L367.928 75.5455ZM388.837 52.4545V51.4545H388.394L388.096 51.7833L388.837 52.4545ZM396.201 52.4545L396.933 53.1358L398.498 51.4545H396.201V52.4545ZM376.655 73.4545L375.923 72.7732L375.348 73.3915L375.861 74.0622L376.655 73.4545ZM396.201 99V100H398.225L396.995 98.3923L396.201 99ZM389.383 99L388.582 99.5989L388.882 100H389.383V99ZM373.201 77.3636L374.002 76.7647L373.268 75.7833L372.454 76.6993L373.201 77.3636ZM367.383 83.9091L366.635 83.2447L366.383 83.5289V83.9091H367.383ZM367.383 99V100H368.383V99H367.383ZM362.746 99V52.4545H360.746V99H362.746ZM361.746 53.4545H367.383V51.4545H361.746V53.4545ZM366.383 52.4545V75.5455H368.383V52.4545H366.383ZM367.383 76.5455H367.928V74.5455H367.383V76.5455ZM368.669 76.2167L389.579 53.1258L388.096 51.7833L367.187 74.8742L368.669 76.2167ZM388.837 53.4545H396.201V51.4545H388.837V53.4545ZM395.469 51.7732L375.923 72.7732L377.387 74.1358L396.933 53.1358L395.469 51.7732ZM375.861 74.0622L395.407 99.6077L396.995 98.3923L377.45 72.8469L375.861 74.0622ZM396.201 98H389.383V100H396.201V98ZM390.184 98.4011L374.002 76.7647L372.4 77.9626L388.582 99.5989L390.184 98.4011ZM372.454 76.6993L366.635 83.2447L368.13 84.5735L373.948 78.028L372.454 76.6993ZM366.383 83.9091V99H368.383V83.9091H366.383ZM367.383 98H361.746V100H367.383V98Z" fill="black"/>
<mask id="mask0_1_9" style="mask-type:alpha" maskUnits="userSpaceOnUse" x="0" y="0" width="145" height="144">
<rect width="145" height="144" rx="30" fill="#2D8CF0"/>
</mask>
<g mask="url(#mask0_1_9)">
<rect x="-21" y="-19" width="205" height="191" fill="#2D8CF0"/>
<path d="M63.2959 29.0909C63.0232 26.7879 61.9171 25 59.9777 23.7273C58.0383 22.4545 55.6595 21.8182 52.8414 21.8182C50.7808 21.8182 48.9777 22.1515 47.4323 22.8182C45.902 23.4848 44.705 24.4015 43.8414 25.5682C42.9929 26.7348 42.5686 28.0606 42.5686 29.5455C42.5686 30.7879 42.8641 31.8561 43.455 32.75C44.0611 33.6288 44.8338 34.3636 45.7732 34.9545C46.7126 35.5303 47.6974 36.0076 48.7277 36.3864C49.758 36.75 50.705 37.0455 51.5686 37.2727L56.2959 38.5455C57.508 38.8636 58.8565 39.303 60.3414 39.8636C61.8414 40.4242 63.2732 41.1894 64.6368 42.1591C66.0156 43.1136 67.152 44.3409 68.0459 45.8409C68.9399 47.3409 69.3868 49.1818 69.3868 51.3636C69.3868 53.8788 68.7277 56.1515 67.4095 58.1818C66.1065 60.2121 64.1974 61.8258 61.6823 63.0227C59.1823 64.2197 56.1444 64.8182 52.5686 64.8182C49.2353 64.8182 46.3489 64.2803 43.9095 63.2045C41.4853 62.1288 39.5762 60.6288 38.1823 58.7045C36.8035 56.7803 36.0232 54.5455 35.8414 52H41.6595C41.8111 53.7576 42.402 55.2121 43.4323 56.3636C44.4777 57.5 45.7959 58.3485 47.3868 58.9091C48.9929 59.4545 50.7202 59.7273 52.5686 59.7273C54.7202 59.7273 56.652 59.3788 58.3641 58.6818C60.0762 57.9697 61.4323 56.9848 62.4323 55.7273C63.4323 54.4545 63.9323 52.9697 63.9323 51.2727C63.9323 49.7273 63.5005 48.4697 62.6368 47.5C61.7732 46.5303 60.6368 45.7424 59.2277 45.1364C57.8186 44.5303 56.2959 44 54.6595 43.5455L48.9323 41.9091C45.2959 40.8636 42.4171 39.3712 40.2959 37.4318C38.1747 35.4924 37.1141 32.9545 37.1141 29.8182C37.1141 27.2121 37.8186 24.9394 39.2277 23C40.652 21.0455 42.5611 19.5303 44.955 18.4545C47.3641 17.3636 50.0535 16.8182 53.0232 16.8182C56.0232 16.8182 58.6899 17.3561 61.0232 18.4318C63.3565 19.4924 65.205 20.947 66.5686 22.7955C67.9474 24.6439 68.6747 26.7424 68.7505 29.0909H63.2959ZM96.1302 17.4545V64H90.4939V17.4545H96.1302Z" fill="white"/>
<path d="M63.2959 29.0909L62.3029 29.2085L62.4073 30.0909H63.2959V29.0909ZM59.9777 23.7273L59.4291 24.5633L59.4291 24.5633L59.9777 23.7273ZM47.4323 22.8182L47.0362 21.9L47.0329 21.9014L47.4323 22.8182ZM43.8414 25.5682L43.0376 24.9732L43.0326 24.98L43.8414 25.5682ZM43.455 32.75L42.6208 33.3014L42.6262 33.3096L42.6318 33.3177L43.455 32.75ZM45.7732 34.9545L45.2407 35.8011L45.2506 35.8071L45.7732 34.9545ZM48.7277 36.3864L48.3826 37.325L48.3949 37.3294L48.7277 36.3864ZM51.5686 37.2727L51.8286 36.3071L51.8231 36.3057L51.5686 37.2727ZM56.2959 38.5455L56.0359 39.5111L56.042 39.5127L56.2959 38.5455ZM60.3414 39.8636L59.9881 40.7992L59.9913 40.8004L60.3414 39.8636ZM64.6368 42.1591L64.0573 42.9741L64.0676 42.9813L64.6368 42.1591ZM68.0459 45.8409L68.9049 45.329L68.9049 45.329L68.0459 45.8409ZM67.4095 58.1818L66.5708 57.6373L66.568 57.6417L67.4095 58.1818ZM61.6823 63.0227L61.2526 62.1198L61.2504 62.1208L61.6823 63.0227ZM43.9095 63.2045L43.5039 64.1186L43.506 64.1195L43.9095 63.2045ZM38.1823 58.7045L37.3694 59.287L37.3724 59.2912L38.1823 58.7045ZM35.8414 52V51H34.7674L34.8439 52.0712L35.8414 52ZM41.6595 52L42.6559 51.9141L42.5771 51H41.6595V52ZM43.4323 56.3636L42.687 57.0305L42.6963 57.0407L43.4323 56.3636ZM47.3868 58.9091L47.0544 59.8523L47.0652 59.856L47.3868 58.9091ZM58.3641 58.6818L58.7411 59.608L58.7481 59.6051L58.3641 58.6818ZM62.4323 55.7273L63.215 56.3497L63.2186 56.3451L62.4323 55.7273ZM62.6368 47.5L63.3836 46.8349L63.3836 46.8349L62.6368 47.5ZM59.2277 45.1364L58.8326 46.055L58.8326 46.055L59.2277 45.1364ZM54.6595 43.5455L54.3848 44.507L54.3919 44.509L54.6595 43.5455ZM48.9323 41.9091L48.656 42.8702L48.6576 42.8706L48.9323 41.9091ZM40.2959 37.4318L39.6211 38.1698L39.6211 38.1698L40.2959 37.4318ZM39.2277 23L38.4195 22.4111L38.4187 22.4122L39.2277 23ZM44.955 18.4545L45.3649 19.3667L45.3675 19.3655L44.955 18.4545ZM61.0232 18.4318L60.6045 19.34L60.6094 19.3422L61.0232 18.4318ZM66.5686 22.7955L65.7639 23.3891L65.7671 23.3933L66.5686 22.7955ZM68.7505 29.0909V30.0909H69.7832L69.7499 29.0587L68.7505 29.0909ZM64.289 28.9733C63.9815 26.3768 62.7127 24.326 60.5264 22.8912L59.4291 24.5633C61.1216 25.674 62.0649 27.1989 62.3029 29.2085L64.289 28.9733ZM60.5264 22.8912C58.3919 21.4905 55.8122 20.8182 52.8414 20.8182V22.8182C55.5069 22.8182 57.6848 23.4186 59.4291 24.5633L60.5264 22.8912ZM52.8414 20.8182C50.6743 20.8182 48.7314 21.1687 47.0362 21.9L47.8284 23.7364C49.224 23.1343 50.8872 22.8182 52.8414 22.8182V20.8182ZM47.0329 21.9014C45.3664 22.6274 44.0203 23.6457 43.0376 24.9732L44.6451 26.1632C45.3897 25.1573 46.4376 24.3423 47.8317 23.735L47.0329 21.9014ZM43.0326 24.98C42.056 26.3229 41.5686 27.8559 41.5686 29.5455H43.5686C43.5686 28.2653 43.9298 27.1468 44.6501 26.1564L43.0326 24.98ZM41.5686 29.5455C41.5686 30.9519 41.9053 32.2191 42.6208 33.3014L44.2892 32.1986C43.8228 31.493 43.5686 30.6238 43.5686 29.5455H41.5686ZM42.6318 33.3177C43.3179 34.3126 44.1912 35.1408 45.2407 35.801L46.3056 34.1081C45.4764 33.5865 44.8042 32.945 44.2782 32.1823L42.6318 33.3177ZM45.2506 35.8071C46.246 36.4172 47.2903 36.9233 48.3827 37.3249L49.0728 35.4478C48.1046 35.0918 47.1792 34.6434 46.2957 34.1019L45.2506 35.8071ZM48.3949 37.3294C49.4455 37.7002 50.419 38.0042 51.3141 38.2398L51.8231 36.3057C50.991 36.0867 50.0705 35.7998 49.0606 35.4434L48.3949 37.3294ZM51.3087 38.2383L56.0359 39.5111L56.5559 37.5798L51.8286 36.3071L51.3087 38.2383ZM56.042 39.5127C57.213 39.8201 58.5277 40.2478 59.9882 40.7992L60.6946 38.9281C59.1853 38.3583 57.803 37.9072 56.5498 37.5782L56.042 39.5127ZM59.9913 40.8004C61.4062 41.3292 62.7613 42.0525 64.0573 42.974L65.2163 41.3441C63.785 40.3263 62.2765 39.5193 60.6915 38.9269L59.9913 40.8004ZM64.0676 42.9813C65.3238 43.851 66.3631 44.9706 67.1869 46.3529L68.9049 45.329C67.9408 43.7112 66.7074 42.3763 65.206 41.3369L64.0676 42.9813ZM67.1869 46.3528C67.9681 47.6638 68.3868 49.3175 68.3868 51.3636H70.3868C70.3868 49.0461 69.9116 47.018 68.9049 45.329L67.1869 46.3528ZM68.3868 51.3636C68.3868 53.6935 67.7795 55.7756 66.5708 57.6373L68.2483 58.7264C69.676 56.5274 70.3868 54.0641 70.3868 51.3636H68.3868ZM66.568 57.6417C65.3805 59.492 63.6258 60.9903 61.2526 62.1198L62.112 63.9257C64.769 62.6612 66.8326 60.9323 68.2511 58.7219L66.568 57.6417ZM61.2504 62.1208C58.9185 63.2373 56.0367 63.8182 52.5686 63.8182V65.8182C56.2521 65.8182 59.4461 65.2021 62.1141 63.9247L61.2504 62.1208ZM52.5686 63.8182C49.3406 63.8182 46.5977 63.2971 44.313 62.2896L43.506 64.1195C46.1002 65.2635 49.1301 65.8182 52.5686 65.8182V63.8182ZM44.3152 62.2905C42.033 61.2778 40.2709 59.8832 38.9921 58.1179L37.3724 59.2912C38.8815 61.3744 40.9376 62.9798 43.5039 64.1186L44.3152 62.2905ZM38.9951 58.1221C37.7323 56.3597 37.0086 54.305 36.8388 51.9288L34.8439 52.0712C35.0378 54.7859 35.8747 57.2009 37.3694 59.287L38.9951 58.1221ZM35.8414 53H41.6595V51H35.8414V53ZM40.6632 52.0859C40.8306 54.0273 41.4924 55.6952 42.687 57.0304L44.1775 55.6968C43.3116 54.729 42.7915 53.4879 42.6559 51.9141L40.6632 52.0859ZM42.6963 57.0407C43.8625 58.3083 45.3239 59.2424 47.0545 59.8522L47.7192 57.9659C46.268 57.4546 45.0929 56.6917 44.1682 55.6866L42.6963 57.0407ZM47.0652 59.856C48.7838 60.4396 50.6206 60.7273 52.5686 60.7273V58.7273C50.8197 58.7273 49.202 58.4695 47.7084 57.9622L47.0652 59.856ZM52.5686 60.7273C54.8285 60.7273 56.8913 60.361 58.7411 59.608L57.9871 57.7556C56.4126 58.3965 54.6118 58.7273 52.5686 58.7273V60.7273ZM58.7481 59.6051C60.5922 58.8381 62.0944 57.7588 63.215 56.3497L61.6496 55.1049C60.7701 56.2109 59.5603 57.1012 57.9801 57.7585L58.7481 59.6051ZM63.2186 56.3451C64.3641 54.8872 64.9323 53.1821 64.9323 51.2727H62.9323C62.9323 52.7573 62.5005 54.0219 61.646 55.1095L63.2186 56.3451ZM64.9323 51.2727C64.9323 49.5312 64.4403 48.0214 63.3836 46.8349L61.8901 48.1651C62.5606 48.918 62.9323 49.9233 62.9323 51.2727H64.9323ZM63.3836 46.8349C62.4066 45.738 61.1422 44.8712 59.6228 44.2177L58.8326 46.055C60.1315 46.6136 61.1397 47.3226 61.8901 48.1651L63.3836 46.8349ZM59.6228 44.2177C58.1682 43.5921 56.6025 43.0473 54.9272 42.5819L54.3919 44.509C55.9894 44.9527 57.4691 45.4685 58.8326 46.055L59.6228 44.2177ZM54.9343 42.5839L49.207 40.9476L48.6576 42.8706L54.3848 44.507L54.9343 42.5839ZM49.2086 40.948C45.6754 39.9322 42.9479 38.5015 40.9707 36.6938L39.6211 38.1698C41.8863 40.2409 44.9164 41.795 48.656 42.8702L49.2086 40.948ZM40.9707 36.6938C39.0769 34.9623 38.1141 32.7024 38.1141 29.8182H36.1141C36.1141 33.2067 37.2725 36.0225 39.6211 38.1698L40.9707 36.6938ZM38.1141 29.8182C38.1141 27.4039 38.7627 25.3413 40.0367 23.5878L38.4187 22.4122C36.8746 24.5375 36.1141 27.0203 36.1141 29.8182H38.1141ZM40.0359 23.5889C41.3491 21.7868 43.1156 20.3774 45.3649 19.3667L44.5451 17.5424C42.0065 18.6832 39.9548 20.3042 38.4195 22.4111L40.0359 23.5889ZM45.3675 19.3655C47.6319 18.3401 50.1782 17.8182 53.0232 17.8182V15.8182C49.9288 15.8182 47.0963 16.3872 44.5425 17.5436L45.3675 19.3655ZM53.0232 17.8182C55.9027 17.8182 58.4227 18.334 60.6045 19.3399L61.4419 17.5237C58.957 16.3781 56.1437 15.8182 53.0232 15.8182V17.8182ZM60.6094 19.3422C62.8059 20.3406 64.5128 21.6931 65.7639 23.3891L67.3734 22.2018C65.8972 20.2008 63.9072 18.6443 61.437 17.5214L60.6094 19.3422ZM65.7671 23.3933C67.0212 25.0747 67.6817 26.9749 67.751 29.1231L69.7499 29.0587C69.6677 26.51 68.8737 24.2132 67.3702 22.1976L65.7671 23.3933ZM68.7505 28.0909H63.2959V30.0909H68.7505V28.0909ZM96.1302 17.4545H97.1302V16.4545H96.1302V17.4545ZM96.1302 64V65H97.1302V64H96.1302ZM90.4939 64H89.4939V65H90.4939V64ZM90.4939 17.4545V16.4545H89.4939V17.4545H90.4939ZM95.1302 17.4545V64H97.1302V17.4545H95.1302ZM96.1302 63H90.4939V65H96.1302V63ZM91.4939 64V17.4545H89.4939V64H91.4939ZM90.4939 18.4545H96.1302V16.4545H90.4939V18.4545Z" fill="white"/>
<path d="M33.8347 83.4545V78.4545H68.7438V83.4545H54.1074V125H48.471V83.4545H33.8347ZM80.6426 125V78.4545H108.734V83.4545H86.279V99.1818H107.279V104.182H86.279V120H109.097V125H80.6426Z" fill="white"/>
<path d="M33.8347 83.4545H32.8347V84.4545H33.8347V83.4545ZM33.8347 78.4545V77.4545H32.8347V78.4545H33.8347ZM68.7438 78.4545H69.7438V77.4545H68.7438V78.4545ZM68.7438 83.4545V84.4545H69.7438V83.4545H68.7438ZM54.1074 83.4545V82.4545H53.1074V83.4545H54.1074ZM54.1074 125V126H55.1074V125H54.1074ZM48.471 125H47.471V126H48.471V125ZM48.471 83.4545H49.471V82.4545H48.471V83.4545ZM34.8347 83.4545V78.4545H32.8347V83.4545H34.8347ZM33.8347 79.4545H68.7438V77.4545H33.8347V79.4545ZM67.7438 78.4545V83.4545H69.7438V78.4545H67.7438ZM68.7438 82.4545H54.1074V84.4545H68.7438V82.4545ZM53.1074 83.4545V125H55.1074V83.4545H53.1074ZM54.1074 124H48.471V126H54.1074V124ZM49.471 125V83.4545H47.471V125H49.471ZM48.471 82.4545H33.8347V84.4545H48.471V82.4545ZM80.6426 125H79.6426V126H80.6426V125ZM80.6426 78.4545V77.4545H79.6426V78.4545H80.6426ZM108.734 78.4545H109.734V77.4545H108.734V78.4545ZM108.734 83.4545V84.4545H109.734V83.4545H108.734ZM86.279 83.4545V82.4545H85.279V83.4545H86.279ZM86.279 99.1818H85.279V100.182H86.279V99.1818ZM107.279 99.1818H108.279V98.1818H107.279V99.1818ZM107.279 104.182V105.182H108.279V104.182H107.279ZM86.279 104.182V103.182H85.279V104.182H86.279ZM86.279 120H85.279V121H86.279V120ZM109.097 120H110.097V119H109.097V120ZM109.097 125V126H110.097V125H109.097ZM81.6426 125V78.4545H79.6426V125H81.6426ZM80.6426 79.4545H108.734V77.4545H80.6426V79.4545ZM107.734 78.4545V83.4545H109.734V78.4545H107.734ZM108.734 82.4545H86.279V84.4545H108.734V82.4545ZM85.279 83.4545V99.1818H87.279V83.4545H85.279ZM86.279 100.182H107.279V98.1818H86.279V100.182ZM106.279 99.1818V104.182H108.279V99.1818H106.279ZM107.279 103.182H86.279V105.182H107.279V103.182ZM85.279 104.182V120H87.279V104.182H85.279ZM86.279 121H109.097V119H86.279V121ZM108.097 120V125H110.097V120H108.097ZM109.097 124H80.6426V126H109.097V124Z" fill="white"/>
<rect x="101" y="-85" width="118" height="118" rx="59" stroke="white" stroke-width="12"/>
<rect x="101" y="-85" width="118" height="118" rx="59" stroke="white" stroke-width="12"/>
<rect x="101" y="-85" width="118" height="118" rx="59" stroke="white" stroke-width="12"/>
<rect x="101" y="-85" width="118" height="118" rx="59" stroke="white" stroke-width="12"/>
<rect x="81" y="-105" width="158" height="158" rx="79" stroke="white" stroke-width="12"/>
<rect x="81" y="-105" width="158" height="158" rx="79" stroke="white" stroke-width="12"/>
<rect x="81" y="-105" width="158" height="158" rx="79" stroke="white" stroke-width="12"/>
<rect x="81" y="-105" width="158" height="158" rx="79" stroke="white" stroke-width="12"/>
<rect x="-92" y="94" width="158" height="158" rx="79" stroke="white" stroke-width="12"/>
<rect x="-92" y="94" width="158" height="158" rx="79" stroke="white" stroke-width="12"/>
<rect x="-92" y="94" width="158" height="158" rx="79" stroke="white" stroke-width="12"/>
<rect x="-92" y="94" width="158" height="158" rx="79" stroke="white" stroke-width="12"/>
<rect x="-72" y="114" width="118" height="118" rx="59" stroke="white" stroke-width="12"/>
<rect x="-72" y="114" width="118" height="118" rx="59" stroke="white" stroke-width="12"/>
<rect x="-72" y="114" width="118" height="118" rx="59" stroke="white" stroke-width="12"/>
<rect x="-72" y="114" width="118" height="118" rx="59" stroke="white" stroke-width="12"/>
</g>
</svg>
