<svg width="160" height="30" viewBox="0 0 392 81" fill="none" xmlns="http://www.w3.org/2000/svg">
<g clip-path="url(#clip0_1_9)">
<path d="M215.091 34H209.455C209.121 32.3788 208.538 30.9545 207.705 29.7273C206.886 28.5 205.886 27.4697 204.705 26.6364C203.538 25.7879 202.242 25.1515 200.818 24.7273C199.394 24.303 197.909 24.0909 196.364 24.0909C193.545 24.0909 190.992 24.803 188.705 26.2273C186.432 27.6515 184.621 29.75 183.273 32.5227C181.939 35.2955 181.273 38.697 181.273 42.7273C181.273 46.7576 181.939 50.1591 183.273 52.9318C184.621 55.7045 186.432 57.803 188.705 59.2273C190.992 60.6515 193.545 61.3636 196.364 61.3636C197.909 61.3636 199.394 61.1515 200.818 60.7273C202.242 60.303 203.538 59.6742 204.705 58.8409C205.886 57.9924 206.886 56.9545 207.705 55.7273C208.538 54.4848 209.121 53.0606 209.455 51.4545H215.091C214.667 53.8333 213.894 55.9621 212.773 57.8409C211.652 59.7197 210.258 61.3182 208.591 62.6364C206.924 63.9394 205.053 64.9318 202.977 65.6136C200.917 66.2955 198.712 66.6364 196.364 66.6364C192.394 66.6364 188.864 65.6667 185.773 63.7273C182.682 61.7879 180.25 59.0303 178.477 55.4545C176.705 51.8788 175.818 47.6364 175.818 42.7273C175.818 37.8182 176.705 33.5758 178.477 30C180.25 26.4242 182.682 23.6667 185.773 21.7273C188.864 19.7879 192.394 18.8182 196.364 18.8182C198.712 18.8182 200.917 19.1591 202.977 19.8409C205.053 20.5227 206.924 21.5227 208.591 22.8409C210.258 24.1439 211.652 25.7348 212.773 27.6136C213.894 29.4773 214.667 31.6061 215.091 34ZM224.199 66V19.4545H229.835V40.1818H254.653V19.4545H260.29V66H254.653V45.1818H229.835V66H224.199ZM271.574 66V19.4545H299.665V24.4545H277.21V40.1818H298.21V45.1818H277.21V61H300.028V66H271.574ZM347.278 34H341.642C341.309 32.3788 340.725 30.9545 339.892 29.7273C339.074 28.5 338.074 27.4697 336.892 26.6364C335.725 25.7879 334.43 25.1515 333.006 24.7273C331.581 24.303 330.097 24.0909 328.551 24.0909C325.733 24.0909 323.18 24.803 320.892 26.2273C318.619 27.6515 316.809 29.75 315.46 32.5227C314.127 35.2955 313.46 38.697 313.46 42.7273C313.46 46.7576 314.127 50.1591 315.46 52.9318C316.809 55.7045 318.619 57.803 320.892 59.2273C323.18 60.6515 325.733 61.3636 328.551 61.3636C330.097 61.3636 331.581 61.1515 333.006 60.7273C334.43 60.303 335.725 59.6742 336.892 58.8409C338.074 57.9924 339.074 56.9545 339.892 55.7273C340.725 54.4848 341.309 53.0606 341.642 51.4545H347.278C346.854 53.8333 346.081 55.9621 344.96 57.8409C343.839 59.7197 342.445 61.3182 340.778 62.6364C339.112 63.9394 337.241 64.9318 335.165 65.6136C333.104 66.2955 330.9 66.6364 328.551 66.6364C324.581 66.6364 321.051 65.6667 317.96 63.7273C314.869 61.7879 312.438 59.0303 310.665 55.4545C308.892 51.8788 308.006 47.6364 308.006 42.7273C308.006 37.8182 308.892 33.5758 310.665 30C312.438 26.4242 314.869 23.6667 317.96 21.7273C321.051 19.7879 324.581 18.8182 328.551 18.8182C330.9 18.8182 333.104 19.1591 335.165 19.8409C337.241 20.5227 339.112 21.5227 340.778 22.8409C342.445 24.1439 343.839 25.7348 344.96 27.6136C346.081 29.4773 346.854 31.6061 347.278 34ZM356.386 66V19.4545H362.023V42.5455H362.568L383.477 19.4545H390.841L371.295 40.4545L390.841 66H384.023L367.841 44.3636L362.023 50.9091V66H356.386Z" fill="black"/>
<path d="M215.091 34V35H216.284L216.076 33.8255L215.091 34ZM209.455 34L208.475 34.2014L208.639 35H209.455V34ZM207.705 29.7273L206.872 30.282L206.877 30.289L207.705 29.7273ZM204.705 26.6364L204.116 27.4451L204.122 27.4494L204.128 27.4536L204.705 26.6364ZM200.818 24.7273L200.533 25.6857L200.533 25.6857L200.818 24.7273ZM188.705 26.2273L188.176 25.3783L188.174 25.3799L188.705 26.2273ZM183.273 32.5227L182.373 32.0854L182.372 32.0894L183.273 32.5227ZM183.273 52.9318L182.372 53.3652L182.373 53.3692L183.273 52.9318ZM188.705 59.2273L188.174 60.0746L188.176 60.0762L188.705 59.2273ZM200.818 60.7273L200.533 59.7689L200.533 59.7689L200.818 60.7273ZM204.705 58.8409L205.286 59.6546L205.288 59.6532L204.705 58.8409ZM207.705 55.7273L206.874 55.1702L206.872 55.1726L207.705 55.7273ZM209.455 51.4545V50.4545H208.641L208.475 51.2513L209.455 51.4545ZM215.091 51.4545L216.075 51.6301L216.285 50.4545H215.091V51.4545ZM212.773 57.8409L211.914 57.3285L211.914 57.3285L212.773 57.8409ZM208.591 62.6364L209.207 63.4242L209.211 63.4207L208.591 62.6364ZM202.977 65.6136L202.665 64.6636L202.663 64.6643L202.977 65.6136ZM185.773 63.7273L185.241 64.5743L185.241 64.5743L185.773 63.7273ZM178.477 55.4545L179.373 55.0104L179.373 55.0104L178.477 55.4545ZM178.477 30L177.581 29.5558L178.477 30ZM202.977 19.8409L202.663 20.7903L202.665 20.791L202.977 19.8409ZM208.591 22.8409L207.971 23.6253L207.975 23.6287L208.591 22.8409ZM212.773 27.6136L211.914 28.1261L211.916 28.1292L212.773 27.6136ZM215.091 33H209.455V35H215.091V33ZM210.434 33.7986C210.077 32.0633 209.447 30.5137 208.532 29.1655L206.877 30.289C207.629 31.3954 208.165 32.6942 208.475 34.2014L210.434 33.7986ZM208.537 29.1726C207.651 27.8449 206.565 26.7249 205.281 25.8191L204.128 27.4536C205.207 28.2145 206.121 29.1551 206.872 30.282L208.537 29.1726ZM205.293 25.8276C204.032 24.9105 202.633 24.2245 201.104 23.7689L200.533 25.6857C201.852 26.0785 203.044 26.6653 204.116 27.4451L205.293 25.8276ZM201.104 23.7689C199.583 23.316 198.002 23.0909 196.364 23.0909V25.0909C197.816 25.0909 199.205 25.2901 200.533 25.6857L201.104 23.7689ZM196.364 23.0909C193.368 23.0909 190.63 23.8507 188.176 25.3783L189.233 27.0762C191.355 25.7553 193.723 25.0909 196.364 25.0909V23.0909ZM188.174 25.3799C185.719 26.9178 183.791 29.1699 182.373 32.0854L184.172 32.9601C185.451 30.3301 187.144 28.3852 189.236 27.0746L188.174 25.3799ZM182.372 32.0894C180.956 35.0325 180.273 38.5915 180.273 42.7273H182.273C182.273 38.8024 182.923 35.5585 184.174 32.9561L182.372 32.0894ZM180.273 42.7273C180.273 46.863 180.956 50.4221 182.372 53.3652L184.174 52.4984C182.923 49.8961 182.273 46.6521 182.273 42.7273H180.273ZM182.373 53.3692C183.791 56.2846 185.719 58.5367 188.174 60.0746L189.236 58.3799C187.144 57.0693 185.451 55.1245 184.172 52.4945L182.373 53.3692ZM188.176 60.0762C190.63 61.6038 193.368 62.3636 196.364 62.3636V60.3636C193.723 60.3636 191.355 59.6992 189.233 58.3783L188.176 60.0762ZM196.364 62.3636C198.002 62.3636 199.583 62.1386 201.104 61.6857L200.533 59.7689C199.205 60.1644 197.816 60.3636 196.364 60.3636V62.3636ZM201.104 61.6857C202.63 61.231 204.026 60.5545 205.286 59.6546L204.123 58.0272C203.05 58.794 201.855 59.375 200.533 59.7689L201.104 61.6857ZM205.288 59.6532C206.569 58.7336 207.653 57.608 208.537 56.282L206.872 55.1726C206.12 56.3011 205.204 57.2513 204.121 58.0286L205.288 59.6532ZM208.535 56.2843C209.447 54.9247 210.077 53.378 210.434 51.6578L208.475 51.2513C208.166 52.7432 207.629 54.045 206.874 55.1702L208.535 56.2843ZM209.455 52.4545H215.091V50.4545H209.455V52.4545ZM214.106 51.279C213.701 53.5512 212.967 55.5637 211.914 57.3285L213.631 58.3534C214.821 56.3605 215.632 54.1155 216.075 51.6301L214.106 51.279ZM211.914 57.3285C210.853 59.106 209.539 60.6115 207.971 61.852L209.211 63.4207C210.976 62.0249 212.45 60.3334 213.631 58.3534L211.914 57.3285ZM207.975 61.8486C206.402 63.078 204.635 64.0167 202.665 64.6636L203.289 66.5637C205.471 65.847 207.446 64.8008 209.207 63.4242L207.975 61.8486ZM202.663 64.6643C200.712 65.3099 198.614 65.6364 196.364 65.6364V67.6364C198.81 67.6364 201.121 67.281 203.291 66.563L202.663 64.6643ZM196.364 65.6364C192.565 65.6364 189.222 64.7109 186.304 62.8802L185.241 64.5743C188.505 66.6224 192.223 67.6364 196.364 67.6364V65.6364ZM186.304 62.8802C183.384 61.048 181.072 58.4368 179.373 55.0104L177.581 55.8987C179.428 59.6238 181.979 62.5278 185.241 64.5743L186.304 62.8802ZM179.373 55.0104C177.683 51.6008 176.818 47.5171 176.818 42.7273H174.818C174.818 47.7557 175.726 52.1568 177.581 55.8987L179.373 55.0104ZM176.818 42.7273C176.818 37.9375 177.683 33.8538 179.373 30.4442L177.581 29.5558C175.726 33.2978 174.818 37.6989 174.818 42.7273H176.818ZM179.373 30.4442C181.072 27.0177 183.384 24.4065 186.304 22.5743L185.241 20.8802C181.979 22.9268 179.428 25.8308 177.581 29.5558L179.373 30.4442ZM186.304 22.5743C189.222 20.7436 192.565 19.8182 196.364 19.8182V17.8182C192.223 17.8182 188.505 18.8321 185.241 20.8802L186.304 22.5743ZM196.364 19.8182C198.614 19.8182 200.712 20.1446 202.663 20.7903L203.291 18.8915C201.121 18.1735 198.81 17.8182 196.364 17.8182V19.8182ZM202.665 20.791C204.632 21.4371 206.399 22.3821 207.971 23.6252L209.211 22.0566C207.45 20.6634 205.474 19.6083 203.289 18.8908L202.665 20.791ZM207.975 23.6287C209.541 24.8531 210.854 26.3496 211.914 28.1261L213.631 27.1012C212.449 25.1201 210.974 23.4347 209.207 22.0531L207.975 23.6287ZM211.916 28.1292C212.967 29.8763 213.701 31.887 214.106 34.1745L216.076 33.8255C215.632 31.3252 214.821 29.0783 213.63 27.0981L211.916 28.1292ZM224.199 66H223.199V67H224.199V66ZM224.199 19.4545V18.4545H223.199V19.4545H224.199ZM229.835 19.4545H230.835V18.4545H229.835V19.4545ZM229.835 40.1818H228.835V41.1818H229.835V40.1818ZM254.653 40.1818V41.1818H255.653V40.1818H254.653ZM254.653 19.4545V18.4545H253.653V19.4545H254.653ZM260.29 19.4545H261.29V18.4545H260.29V19.4545ZM260.29 66V67H261.29V66H260.29ZM254.653 66H253.653V67H254.653V66ZM254.653 45.1818H255.653V44.1818H254.653V45.1818ZM229.835 45.1818V44.1818H228.835V45.1818H229.835ZM229.835 66V67H230.835V66H229.835ZM225.199 66V19.4545H223.199V66H225.199ZM224.199 20.4545H229.835V18.4545H224.199V20.4545ZM228.835 19.4545V40.1818H230.835V19.4545H228.835ZM229.835 41.1818H254.653V39.1818H229.835V41.1818ZM255.653 40.1818V19.4545H253.653V40.1818H255.653ZM254.653 20.4545H260.29V18.4545H254.653V20.4545ZM259.29 19.4545V66H261.29V19.4545H259.29ZM260.29 65H254.653V67H260.29V65ZM255.653 66V45.1818H253.653V66H255.653ZM254.653 44.1818H229.835V46.1818H254.653V44.1818ZM228.835 45.1818V66H230.835V45.1818H228.835ZM229.835 65H224.199V67H229.835V65ZM271.574 66H270.574V67H271.574V66ZM271.574 19.4545V18.4545H270.574V19.4545H271.574ZM299.665 19.4545H300.665V18.4545H299.665V19.4545ZM299.665 24.4545V25.4545H300.665V24.4545H299.665ZM277.21 24.4545V23.4545H276.21V24.4545H277.21ZM277.21 40.1818H276.21V41.1818H277.21V40.1818ZM298.21 40.1818H299.21V39.1818H298.21V40.1818ZM298.21 45.1818V46.1818H299.21V45.1818H298.21ZM277.21 45.1818V44.1818H276.21V45.1818H277.21ZM277.21 61H276.21V62H277.21V61ZM300.028 61H301.028V60H300.028V61ZM300.028 66V67H301.028V66H300.028ZM272.574 66V19.4545H270.574V66H272.574ZM271.574 20.4545H299.665V18.4545H271.574V20.4545ZM298.665 19.4545V24.4545H300.665V19.4545H298.665ZM299.665 23.4545H277.21V25.4545H299.665V23.4545ZM276.21 24.4545V40.1818H278.21V24.4545H276.21ZM277.21 41.1818H298.21V39.1818H277.21V41.1818ZM297.21 40.1818V45.1818H299.21V40.1818H297.21ZM298.21 44.1818H277.21V46.1818H298.21V44.1818ZM276.21 45.1818V61H278.21V45.1818H276.21ZM277.21 62H300.028V60H277.21V62ZM299.028 61V66H301.028V61H299.028ZM300.028 65H271.574V67H300.028V65ZM347.278 34V35H348.471L348.263 33.8255L347.278 34ZM341.642 34L340.663 34.2014L340.827 35H341.642V34ZM339.892 29.7273L339.06 30.282L339.065 30.289L339.892 29.7273ZM336.892 26.6364L336.304 27.4451L336.31 27.4494L336.316 27.4536L336.892 26.6364ZM333.006 24.7273L332.72 25.6857L332.72 25.6857L333.006 24.7273ZM320.892 26.2273L320.364 25.3783L320.361 25.3799L320.892 26.2273ZM315.46 32.5227L314.561 32.0854L314.559 32.0894L315.46 32.5227ZM315.46 52.9318L314.559 53.3652L314.561 53.3692L315.46 52.9318ZM320.892 59.2273L320.361 60.0746L320.364 60.0762L320.892 59.2273ZM333.006 60.7273L332.72 59.7689L332.72 59.7689L333.006 60.7273ZM336.892 58.8409L337.473 59.6546L337.475 59.6532L336.892 58.8409ZM339.892 55.7273L339.062 55.1702L339.06 55.1726L339.892 55.7273ZM341.642 51.4545V50.4545H340.828L340.663 51.2513L341.642 51.4545ZM347.278 51.4545L348.263 51.6301L348.473 50.4545H347.278V51.4545ZM344.96 57.8409L344.102 57.3285L344.102 57.3285L344.96 57.8409ZM340.778 62.6364L341.394 63.4242L341.399 63.4207L340.778 62.6364ZM335.165 65.6136L334.853 64.6636L334.851 64.6643L335.165 65.6136ZM317.96 63.7273L317.429 64.5743L317.429 64.5743L317.96 63.7273ZM310.665 55.4545L311.561 55.0104L311.561 55.0104L310.665 55.4545ZM310.665 30L309.769 29.5558L310.665 30ZM335.165 19.8409L334.851 20.7903L334.853 20.791L335.165 19.8409ZM340.778 22.8409L340.158 23.6253L340.162 23.6287L340.778 22.8409ZM344.96 27.6136L344.102 28.1261L344.103 28.1292L344.96 27.6136ZM347.278 33H341.642V35H347.278V33ZM342.622 33.7986C342.265 32.0633 341.635 30.5137 340.719 29.1655L339.065 30.289C339.816 31.3954 340.353 32.6942 340.663 34.2014L342.622 33.7986ZM340.724 29.1726C339.839 27.8449 338.753 26.7249 337.468 25.8191L336.316 27.4536C337.395 28.2145 338.309 29.1551 339.06 30.282L340.724 29.1726ZM337.48 25.8276C336.219 24.9105 334.821 24.2245 333.291 23.7689L332.72 25.6857C334.039 26.0785 335.232 26.6653 336.304 27.4451L337.48 25.8276ZM333.291 23.7689C331.771 23.316 330.189 23.0909 328.551 23.0909V25.0909C330.004 25.0909 331.392 25.2901 332.72 25.6857L333.291 23.7689ZM328.551 23.0909C325.555 23.0909 322.817 23.8507 320.364 25.3783L321.421 27.0762C323.542 25.7553 325.911 25.0909 328.551 25.0909V23.0909ZM320.361 25.3799C317.907 26.9178 315.979 29.1699 314.561 32.0854L316.36 32.9601C317.639 30.3301 319.332 28.3852 321.423 27.0746L320.361 25.3799ZM314.559 32.0894C313.144 35.0325 312.46 38.5915 312.46 42.7273H314.46C314.46 38.8024 315.11 35.5585 316.361 32.9561L314.559 32.0894ZM312.46 42.7273C312.46 46.863 313.144 50.4221 314.559 53.3652L316.361 52.4984C315.11 49.8961 314.46 46.6521 314.46 42.7273H312.46ZM314.561 53.3692C315.979 56.2846 317.907 58.5367 320.361 60.0746L321.423 58.3799C319.332 57.0693 317.639 55.1245 316.36 52.4945L314.561 53.3692ZM320.364 60.0762C322.817 61.6038 325.555 62.3636 328.551 62.3636V60.3636C325.911 60.3636 323.542 59.6992 321.421 58.3783L320.364 60.0762ZM328.551 62.3636C330.189 62.3636 331.771 62.1386 333.291 61.6857L332.72 59.7689C331.392 60.1644 330.004 60.3636 328.551 60.3636V62.3636ZM333.291 61.6857C334.817 61.231 336.213 60.5545 337.473 59.6546L336.311 58.0272C335.237 58.794 334.042 59.375 332.72 59.7689L333.291 61.6857ZM337.475 59.6532C338.756 58.7336 339.84 57.608 340.724 56.282L339.06 55.1726C338.308 56.3011 337.392 57.2513 336.309 58.0286L337.475 59.6532ZM340.723 56.2843C341.634 54.9247 342.264 53.378 342.621 51.6578L340.663 51.2513C340.353 52.7432 339.816 54.045 339.062 55.1702L340.723 56.2843ZM341.642 52.4545H347.278V50.4545H341.642V52.4545ZM346.294 51.279C345.889 53.5512 345.155 55.5637 344.102 57.3285L345.819 58.3534C347.008 56.3605 347.82 54.1155 348.263 51.6301L346.294 51.279ZM344.102 57.3285C343.041 59.106 341.727 60.6115 340.158 61.852L341.399 63.4207C343.164 62.0249 344.637 60.3334 345.819 58.3534L344.102 57.3285ZM340.162 61.8486C338.59 63.078 336.822 64.0167 334.853 64.6636L335.477 66.5637C337.659 65.847 339.634 64.8008 341.394 63.4242L340.162 61.8486ZM334.851 64.6643C332.899 65.3099 330.802 65.6364 328.551 65.6364V67.6364C330.998 67.6364 333.309 67.281 335.479 66.563L334.851 64.6643ZM328.551 65.6364C324.752 65.6364 321.409 64.7109 318.492 62.8802L317.429 64.5743C320.693 66.6224 324.411 67.6364 328.551 67.6364V65.6364ZM318.492 62.8802C315.572 61.048 313.259 58.4368 311.561 55.0104L309.769 55.8987C311.616 59.6238 314.167 62.5278 317.429 64.5743L318.492 62.8802ZM311.561 55.0104C309.87 51.6008 309.006 47.5171 309.006 42.7273H307.006C307.006 47.7557 307.914 52.1568 309.769 55.8987L311.561 55.0104ZM309.006 42.7273C309.006 37.9375 309.87 33.8538 311.561 30.4442L309.769 29.5558C307.914 33.2978 307.006 37.6989 307.006 42.7273H309.006ZM311.561 30.4442C313.259 27.0177 315.572 24.4065 318.492 22.5743L317.429 20.8802C314.167 22.9268 311.616 25.8308 309.769 29.5558L311.561 30.4442ZM318.492 22.5743C321.409 20.7436 324.752 19.8182 328.551 19.8182V17.8182C324.411 17.8182 320.693 18.8321 317.429 20.8802L318.492 22.5743ZM328.551 19.8182C330.802 19.8182 332.899 20.1446 334.851 20.7903L335.479 18.8915C333.309 18.1735 330.998 17.8182 328.551 17.8182V19.8182ZM334.853 20.791C336.82 21.4371 338.586 22.3821 340.158 23.6252L341.399 22.0566C339.637 20.6634 337.661 19.6083 335.477 18.8908L334.853 20.791ZM340.162 23.6287C341.729 24.8531 343.041 26.3496 344.102 28.1261L345.819 27.1012C344.637 25.1201 343.162 23.4347 341.394 22.0531L340.162 23.6287ZM344.103 28.1292C345.154 29.8763 345.888 31.887 346.294 34.1745L348.263 33.8255C347.82 31.3252 347.008 29.0783 345.817 27.0981L344.103 28.1292ZM356.386 66H355.386V67H356.386V66ZM356.386 19.4545V18.4545H355.386V19.4545H356.386ZM362.023 19.4545H363.023V18.4545H362.023V19.4545ZM362.023 42.5455H361.023V43.5455H362.023V42.5455ZM362.568 42.5455V43.5455H363.012L363.309 43.2167L362.568 42.5455ZM383.477 19.4545V18.4545H383.034L382.736 18.7833L383.477 19.4545ZM390.841 19.4545L391.573 20.1358L393.138 18.4545H390.841V19.4545ZM371.295 40.4545L370.563 39.7732L369.988 40.3915L370.501 41.0622L371.295 40.4545ZM390.841 66V67H392.865L391.635 65.3923L390.841 66ZM384.023 66L383.222 66.5989L383.522 67H384.023V66ZM367.841 44.3636L368.642 43.7647L367.908 42.7833L367.094 43.6993L367.841 44.3636ZM362.023 50.9091L361.275 50.2447L361.023 50.5289V50.9091H362.023ZM362.023 66V67H363.023V66H362.023ZM357.386 66V19.4545H355.386V66H357.386ZM356.386 20.4545H362.023V18.4545H356.386V20.4545ZM361.023 19.4545V42.5455H363.023V19.4545H361.023ZM362.023 43.5455H362.568V41.5455H362.023V43.5455ZM363.309 43.2167L384.219 20.1258L382.736 18.7833L361.827 41.8742L363.309 43.2167ZM383.477 20.4545H390.841V18.4545H383.477V20.4545ZM390.109 18.7732L370.563 39.7732L372.027 41.1358L391.573 20.1358L390.109 18.7732ZM370.501 41.0622L390.047 66.6077L391.635 65.3923L372.09 39.8469L370.501 41.0622ZM390.841 65H384.023V67H390.841V65ZM384.824 65.4011L368.642 43.7647L367.04 44.9626L383.222 66.5989L384.824 65.4011ZM367.094 43.6993L361.275 50.2447L362.77 51.5735L368.588 45.028L367.094 43.6993ZM361.023 50.9091V66H363.023V50.9091H361.023ZM362.023 65H356.386V67H362.023V65Z" fill="black"/>
<rect width="165" height="81" rx="30" fill="#2D8CF0"/>
<path d="M45.0597 31.0909C44.7869 28.7879 43.6809 27 41.7415 25.7273C39.8021 24.4545 37.4233 23.8182 34.6051 23.8182C32.5445 23.8182 30.7415 24.1515 29.196 24.8182C27.6657 25.4848 26.4688 26.4015 25.6051 27.5682C24.7566 28.7348 24.3324 30.0606 24.3324 31.5455C24.3324 32.7879 24.6278 33.8561 25.2188 34.75C25.8248 35.6288 26.5975 36.3636 27.5369 36.9545C28.4763 37.5303 29.4612 38.0076 30.4915 38.3864C31.5218 38.75 32.4688 39.0455 33.3324 39.2727L38.0597 40.5455C39.2718 40.8636 40.6203 41.303 42.1051 41.8636C43.6051 42.4242 45.0369 43.1894 46.4006 44.1591C47.7794 45.1136 48.9157 46.3409 49.8097 47.8409C50.7036 49.3409 51.1506 51.1818 51.1506 53.3636C51.1506 55.8788 50.4915 58.1515 49.1733 60.1818C47.8703 62.2121 45.9612 63.8258 43.446 65.0227C40.946 66.2197 37.9081 66.8182 34.3324 66.8182C30.9991 66.8182 28.1127 66.2803 25.6733 65.2045C23.2491 64.1288 21.34 62.6288 19.946 60.7045C18.5672 58.7803 17.7869 56.5455 17.6051 54H23.4233C23.5748 55.7576 24.1657 57.2121 25.196 58.3636C26.2415 59.5 27.5597 60.3485 29.1506 60.9091C30.7566 61.4545 32.4839 61.7273 34.3324 61.7273C36.4839 61.7273 38.4157 61.3788 40.1278 60.6818C41.84 59.9697 43.196 58.9848 44.196 57.7273C45.196 56.4545 45.696 54.9697 45.696 53.2727C45.696 51.7273 45.2642 50.4697 44.4006 49.5C43.5369 48.5303 42.4006 47.7424 40.9915 47.1364C39.5824 46.5303 38.0597 46 36.4233 45.5455L30.696 43.9091C27.0597 42.8636 24.1809 41.3712 22.0597 39.4318C19.9384 37.4924 18.8778 34.9545 18.8778 31.8182C18.8778 29.2121 19.5824 26.9394 20.9915 25C22.4157 23.0455 24.3248 21.5303 26.7188 20.4545C29.1278 19.3636 31.8172 18.8182 34.7869 18.8182C37.7869 18.8182 40.4536 19.3561 42.7869 20.4318C45.1203 21.4924 46.9688 22.947 48.3324 24.7955C49.7112 26.6439 50.4384 28.7424 50.5142 31.0909H45.0597ZM66.054 19.4545V66H60.4176V19.4545H66.054ZM74.8097 24.4545V19.4545H109.719V24.4545H95.0824V66H89.446V24.4545H74.8097ZM118.418 66V19.4545H146.509V24.4545H124.054V40.1818H145.054V45.1818H124.054V61H146.872V66H118.418Z" fill="white"/>
<path d="M45.0597 31.0909L44.0666 31.2085L44.1711 32.0909H45.0597V31.0909ZM41.7415 25.7273L41.1928 26.5633L41.1928 26.5633L41.7415 25.7273ZM29.196 24.8182L28.7999 23.9L28.7966 23.9014L29.196 24.8182ZM25.6051 27.5682L24.8013 26.9732L24.7964 26.98L25.6051 27.5682ZM25.2188 34.75L24.3845 35.3014L24.39 35.3096L24.3955 35.3177L25.2188 34.75ZM27.5369 36.9545L27.0044 37.8011L27.0144 37.8071L27.5369 36.9545ZM30.4915 38.3864L30.1464 39.325L30.1587 39.3294L30.4915 38.3864ZM33.3324 39.2727L33.5924 38.3071L33.5869 38.3057L33.3324 39.2727ZM38.0597 40.5455L37.7997 41.5111L37.8058 41.5127L38.0597 40.5455ZM42.1051 41.8636L41.7519 42.7992L41.755 42.8004L42.1051 41.8636ZM46.4006 44.1591L45.821 44.9741L45.8314 44.9813L46.4006 44.1591ZM49.8097 47.8409L50.6687 47.329L50.6687 47.329L49.8097 47.8409ZM49.1733 60.1818L48.3346 59.6373L48.3317 59.6417L49.1733 60.1818ZM43.446 65.0227L43.0163 64.1198L43.0142 64.1208L43.446 65.0227ZM25.6733 65.2045L25.2677 66.1186L25.2698 66.1195L25.6733 65.2045ZM19.946 60.7045L19.1331 61.287L19.1362 61.2912L19.946 60.7045ZM17.6051 54V53H16.5311L16.6077 54.0712L17.6051 54ZM23.4233 54L24.4196 53.9141L24.3408 53H23.4233V54ZM25.196 58.3636L24.4507 59.0305L24.4601 59.0407L25.196 58.3636ZM29.1506 60.9091L28.8182 61.8523L28.829 61.856L29.1506 60.9091ZM40.1278 60.6818L40.5049 61.608L40.5119 61.6051L40.1278 60.6818ZM44.196 57.7273L44.9787 58.3497L44.9823 58.3451L44.196 57.7273ZM44.4006 49.5L45.1473 48.8349L45.1473 48.8349L44.4006 49.5ZM40.9915 47.1364L40.5964 48.055L40.5964 48.055L40.9915 47.1364ZM36.4233 45.5455L36.1486 46.507L36.1557 46.509L36.4233 45.5455ZM30.696 43.9091L30.4197 44.8702L30.4213 44.8706L30.696 43.9091ZM22.0597 39.4318L21.3849 40.1698L21.3849 40.1698L22.0597 39.4318ZM20.9915 25L20.1833 24.4111L20.1825 24.4122L20.9915 25ZM26.7188 20.4545L27.1286 21.3667L27.1313 21.3655L26.7188 20.4545ZM42.7869 20.4318L42.3682 21.34L42.3731 21.3422L42.7869 20.4318ZM48.3324 24.7955L47.5277 25.3891L47.5308 25.3933L48.3324 24.7955ZM50.5142 31.0909V32.0909H51.547L51.5137 31.0587L50.5142 31.0909ZM46.0527 30.9733C45.7452 28.3768 44.4764 26.326 42.2901 24.8912L41.1928 26.5633C42.8853 27.674 43.8286 29.1989 44.0666 31.2085L46.0527 30.9733ZM42.2901 24.8912C40.1557 23.4905 37.576 22.8182 34.6051 22.8182V24.8182C37.2706 24.8182 39.4485 25.4186 41.1928 26.5633L42.2901 24.8912ZM34.6051 22.8182C32.4381 22.8182 30.4952 23.1687 28.7999 23.9L29.5921 25.7364C30.9878 25.1343 32.651 24.8182 34.6051 24.8182V22.8182ZM28.7966 23.9014C27.1301 24.6274 25.7841 25.6457 24.8014 26.9732L26.4089 28.1632C27.1534 27.1573 28.2013 26.3423 29.5954 25.735L28.7966 23.9014ZM24.7964 26.98C23.8197 28.3229 23.3324 29.8559 23.3324 31.5455H25.3324C25.3324 30.2653 25.6935 29.1468 26.4139 28.1564L24.7964 26.98ZM23.3324 31.5455C23.3324 32.9519 23.6691 34.2191 24.3845 35.3014L26.053 34.1986C25.5866 33.493 25.3324 32.6238 25.3324 31.5455H23.3324ZM24.3955 35.3177C25.0817 36.3126 25.9549 37.1408 27.0045 37.801L28.0694 36.1081C27.2402 35.5865 26.568 34.945 26.042 34.1823L24.3955 35.3177ZM27.0144 37.8071C28.0097 38.4172 29.054 38.9233 30.1464 39.3249L30.8365 37.4478C29.8683 37.0918 28.9429 36.6434 28.0595 36.1019L27.0144 37.8071ZM30.1587 39.3294C31.2093 39.7002 32.1828 40.0042 33.0779 40.2398L33.5869 38.3057C32.7547 38.0867 31.8343 37.7998 30.8243 37.4434L30.1587 39.3294ZM33.0724 40.2383L37.7997 41.5111L38.3196 39.5798L33.5924 38.3071L33.0724 40.2383ZM37.8058 41.5127C38.9768 41.8201 40.2915 42.2478 41.7519 42.7992L42.4583 40.9281C40.9491 40.3583 39.5668 39.9072 38.3136 39.5782L37.8058 41.5127ZM41.755 42.8004C43.17 43.3292 44.5251 44.0525 45.821 44.974L46.9801 43.3441C45.5488 42.3263 44.0402 41.5193 42.4552 40.9269L41.755 42.8004ZM45.8314 44.9813C47.0876 45.851 48.1269 46.9706 48.9506 48.3529L50.6687 47.329C49.7046 45.7112 48.4711 44.3763 46.9698 43.3369L45.8314 44.9813ZM48.9506 48.3528C49.7319 49.6638 50.1506 51.3175 50.1506 53.3636H52.1506C52.1506 51.0461 51.6753 49.018 50.6687 47.329L48.9506 48.3528ZM50.1506 53.3636C50.1506 55.6935 49.5432 57.7756 48.3346 59.6373L50.012 60.7264C51.4397 58.5274 52.1506 56.0641 52.1506 53.3636H50.1506ZM48.3317 59.6417C47.1442 61.492 45.3896 62.9903 43.0163 64.1198L43.8757 65.9257C46.5328 64.6612 48.5963 62.9323 50.0149 60.7219L48.3317 59.6417ZM43.0142 64.1208C40.6822 65.2373 37.8005 65.8182 34.3324 65.8182V67.8182C38.0158 67.8182 41.2098 67.2021 43.8779 65.9247L43.0142 64.1208ZM34.3324 65.8182C31.1043 65.8182 28.3615 65.2971 26.0768 64.2896L25.2698 66.1195C27.8639 67.2635 30.8938 67.8182 34.3324 67.8182V65.8182ZM26.0789 64.2905C23.7967 63.2778 22.0346 61.8832 20.7559 60.1179L19.1362 61.2912C20.6453 63.3744 22.7014 64.9798 25.2677 66.1186L26.0789 64.2905ZM20.7589 60.1221C19.496 58.3597 18.7723 56.305 18.6026 53.9288L16.6077 54.0712C16.8016 56.7859 17.6384 59.2009 19.1332 61.287L20.7589 60.1221ZM17.6051 55H23.4233V53H17.6051V55ZM22.427 54.0859C22.5943 56.0273 23.2561 57.6952 24.4508 59.0304L25.9413 57.6968C25.0753 56.729 24.5553 55.4879 24.4196 53.9141L22.427 54.0859ZM24.4601 59.0407C25.6263 60.3083 27.0876 61.2424 28.8182 61.8522L29.4829 59.9659C28.0317 59.4546 26.8567 58.6917 25.932 57.6866L24.4601 59.0407ZM28.829 61.856C30.5475 62.4396 32.3843 62.7273 34.3324 62.7273V60.7273C32.5835 60.7273 30.9658 60.4695 29.4722 59.9622L28.829 61.856ZM34.3324 62.7273C36.5923 62.7273 38.6551 62.361 40.5049 61.608L39.7508 59.7556C38.1764 60.3965 36.3755 60.7273 34.3324 60.7273V62.7273ZM40.5119 61.6051C42.3559 60.8381 43.8582 59.7588 44.9787 58.3497L43.4133 57.1049C42.5339 58.2109 41.324 59.1012 39.7438 59.7585L40.5119 61.6051ZM44.9823 58.3451C46.1278 56.8872 46.696 55.1821 46.696 53.2727H44.696C44.696 54.7573 44.2642 56.0219 43.4097 57.1095L44.9823 58.3451ZM46.696 53.2727C46.696 51.5312 46.2041 50.0214 45.1473 48.8349L43.6538 50.1651C44.3243 50.918 44.696 51.9233 44.696 53.2727H46.696ZM45.1473 48.8349C44.1704 47.738 42.9059 46.8712 41.3866 46.2177L40.5964 48.055C41.8952 48.6136 42.9035 49.3226 43.6538 50.1651L45.1473 48.8349ZM41.3866 46.2177C39.9319 45.5921 38.3662 45.0473 36.6909 44.5819L36.1557 46.509C37.7531 46.9527 39.2328 47.4685 40.5964 48.055L41.3866 46.2177ZM36.698 44.5839L30.9707 42.9476L30.4213 44.8706L36.1486 46.507L36.698 44.5839ZM30.9723 42.948C27.4392 41.9322 24.7116 40.5015 22.7344 38.6938L21.3849 40.1698C23.6501 42.2409 26.6801 43.795 30.4197 44.8702L30.9723 42.948ZM22.7344 38.6938C20.8406 36.9623 19.8778 34.7024 19.8778 31.8182H17.8778C17.8778 35.2067 19.0363 38.0225 21.3849 40.1698L22.7344 38.6938ZM19.8778 31.8182C19.8778 29.4039 20.5265 27.3413 21.8005 25.5878L20.1825 24.4122C18.6383 26.5375 17.8778 29.0203 17.8778 31.8182H19.8778ZM21.7997 25.5889C23.1129 23.7868 24.8794 22.3774 27.1286 21.3667L26.3089 19.5424C23.7702 20.6832 21.7186 22.3042 20.1833 24.4111L21.7997 25.5889ZM27.1313 21.3655C29.3957 20.3401 31.942 19.8182 34.7869 19.8182V17.8182C31.6925 17.8182 28.86 18.3872 26.3062 19.5436L27.1313 21.3655ZM34.7869 19.8182C37.6664 19.8182 40.1864 20.334 42.3682 21.3399L43.2056 19.5237C40.7208 18.3781 37.9074 17.8182 34.7869 17.8182V19.8182ZM42.3731 21.3422C44.5696 22.3406 46.2765 23.6931 47.5277 25.3891L49.1371 24.2018C47.661 22.2008 45.6709 20.6443 43.2007 19.5214L42.3731 21.3422ZM47.5308 25.3933C48.7849 27.0747 49.4454 28.9749 49.5147 31.1231L51.5137 31.0587C51.4315 28.51 50.6374 26.2132 49.134 24.1976L47.5308 25.3933ZM50.5142 30.0909H45.0597V32.0909H50.5142V30.0909ZM66.054 19.4545H67.054V18.4545H66.054V19.4545ZM66.054 66V67H67.054V66H66.054ZM60.4176 66H59.4176V67H60.4176V66ZM60.4176 19.4545V18.4545H59.4176V19.4545H60.4176ZM65.054 19.4545V66H67.054V19.4545H65.054ZM66.054 65H60.4176V67H66.054V65ZM61.4176 66V19.4545H59.4176V66H61.4176ZM60.4176 20.4545H66.054V18.4545H60.4176V20.4545ZM74.8097 24.4545H73.8097V25.4545H74.8097V24.4545ZM74.8097 19.4545V18.4545H73.8097V19.4545H74.8097ZM109.719 19.4545H110.719V18.4545H109.719V19.4545ZM109.719 24.4545V25.4545H110.719V24.4545H109.719ZM95.0824 24.4545V23.4545H94.0824V24.4545H95.0824ZM95.0824 66V67H96.0824V66H95.0824ZM89.446 66H88.446V67H89.446V66ZM89.446 24.4545H90.446V23.4545H89.446V24.4545ZM75.8097 24.4545V19.4545H73.8097V24.4545H75.8097ZM74.8097 20.4545H109.719V18.4545H74.8097V20.4545ZM108.719 19.4545V24.4545H110.719V19.4545H108.719ZM109.719 23.4545H95.0824V25.4545H109.719V23.4545ZM94.0824 24.4545V66H96.0824V24.4545H94.0824ZM95.0824 65H89.446V67H95.0824V65ZM90.446 66V24.4545H88.446V66H90.446ZM89.446 23.4545H74.8097V25.4545H89.446V23.4545ZM118.418 66H117.418V67H118.418V66ZM118.418 19.4545V18.4545H117.418V19.4545H118.418ZM146.509 19.4545H147.509V18.4545H146.509V19.4545ZM146.509 24.4545V25.4545H147.509V24.4545H146.509ZM124.054 24.4545V23.4545H123.054V24.4545H124.054ZM124.054 40.1818H123.054V41.1818H124.054V40.1818ZM145.054 40.1818H146.054V39.1818H145.054V40.1818ZM145.054 45.1818V46.1818H146.054V45.1818H145.054ZM124.054 45.1818V44.1818H123.054V45.1818H124.054ZM124.054 61H123.054V62H124.054V61ZM146.872 61H147.872V60H146.872V61ZM146.872 66V67H147.872V66H146.872ZM119.418 66V19.4545H117.418V66H119.418ZM118.418 20.4545H146.509V18.4545H118.418V20.4545ZM145.509 19.4545V24.4545H147.509V19.4545H145.509ZM146.509 23.4545H124.054V25.4545H146.509V23.4545ZM123.054 24.4545V40.1818H125.054V24.4545H123.054ZM124.054 41.1818H145.054V39.1818H124.054V41.1818ZM144.054 40.1818V45.1818H146.054V40.1818H144.054ZM145.054 44.1818H124.054V46.1818H145.054V44.1818ZM123.054 45.1818V61H125.054V45.1818H123.054ZM124.054 62H146.872V60H124.054V62ZM145.872 61V66H147.872V61H145.872ZM146.872 65H118.418V67H146.872V65Z" fill="white"/>
</g>
<defs>
<clipPath id="clip0_1_9">
<rect width="392" height="81" fill="white"/>
</clipPath>
</defs>
</svg>
